<?xml version="1.0" encoding="utf-8"?>
<!-- Generator: Adobe Illustrator 23.0.1, SVG Export Plug-In . SVG Version: 6.00 Build 0)  -->
<svg version="1.1" id="Layer_1" xmlns="http://www.w3.org/2000/svg" xmlns:xlink="http://www.w3.org/1999/xlink" x="0px" y="0px"
	 viewBox="0 0 213.8 71.1" style="enable-background:new 0 0 213.8 71.1;" xml:space="preserve">
<style type="text/css">
	.st0{fill:none;stroke:#0090DC;stroke-width:5;}
	.st1{fill:none;stroke:#F77739;stroke-width:5;}
	.st2{fill:none;stroke:#000000;stroke-width:2;}
</style>
<title>EncapLogo - ai</title>
<g id="Layer_1-2">
	<path class="st0" d="M9.8,31.8l16.5-10c-4.1-5.6-12-6.8-17.5-2.7S1.9,31.1,6,36.7s12,6.8,17.5,2.7c2.7-2,4.5-5,5-8.3"/>
	<path class="st0" d="M40.1,26.3c0-5.3,4.3-9.7,9.7-9.7c5.3,0,9.7,4.3,9.7,9.7 M40.1,43.3v-17 M59.4,43.3v-17"/>
	<path class="st0" d="M172.7,43.3V29.2c0-6.8-5.5-12.4-12.4-12.4c-6.8,0-12.4,5.5-12.4,12.4s5.5,12.4,12.4,12.4
		c2.6,0,5.2-0.8,7.3-2.4"/>
	<path class="st0" d="M190.8,39.4c5.6,3.9,13.3,2.5,17.2-3.2c3.9-5.6,2.5-13.3-3.2-17.2s-13.3-2.5-17.2,3.2c-1.4,2.1-2.2,4.5-2.2,7
		v27.2"/>
	<path class="st1" d="M87.3,44.9C61,41.7,69.1,12.6,85.1,14c7.7-14.4,23.4-12.3,29.1-1.3c12.1-2,19,7.7,17.6,14.6
		c9,2.4,11.3,12.2,2,17.3l-30,0.4c-6.7,0-12.2-5.5-12.2-12.2s5.5-12.2,12.2-12.2c3.5,0,6.9,1.5,9.2,4.2"/>
	<g id="_305491912">
		<path id="_305500096" d="M36,67.1c0.2-0.2,0.4-0.5,0.4-0.8c0.1-0.4,0.2-0.7,0.2-1.1s0-0.8-0.2-1.2c-0.1-0.3-0.2-0.5-0.4-0.8
			c-0.2-0.2-0.4-0.4-0.6-0.5c-0.2-0.1-0.5-0.1-0.7-0.1s-0.5,0-0.7,0.1s-0.4,0.2-0.6,0.4c-0.2,0.2-0.3,0.5-0.4,0.8
			c-0.1,0.4-0.2,0.8-0.2,1.2s0,0.8,0.1,1.2c0.1,0.3,0.2,0.6,0.4,0.8c0.2,0.2,0.4,0.3,0.6,0.4c0.2,0.1,0.5,0.1,0.7,0.1
			s0.5-0.1,0.7-0.2C35.6,67.4,35.8,67.2,36,67.1z M36.2,68.8c0,0.3,0.1,0.5,0.3,0.7c0.3,0.2,0.6,0.3,0.9,0.2c0.2,0,0.3,0,0.5-0.1
			c0.1,0,0.3-0.1,0.4-0.1h0.2V71c-0.2,0.1-0.4,0.1-0.6,0.1c-0.3,0-0.7,0-1,0c-0.4,0-0.7,0-1.1-0.2c-0.3-0.1-0.5-0.2-0.8-0.4
			c-0.2-0.2-0.3-0.4-0.4-0.6c-0.1-0.3-0.2-0.5-0.2-0.8c-1,0-2-0.4-2.7-1.2c-0.7-0.8-1-1.8-1-2.8c-0.1-1.1,0.3-2.1,1-2.9
			c0.8-0.7,1.8-1.1,2.9-1.1c1.1-0.1,2.2,0.3,3,1.1c0.7,0.8,1.1,1.9,1,2.9c0,0.8-0.2,1.6-0.6,2.3C37.5,68.1,36.9,68.6,36.2,68.8z"/>
		<path id="_3055000961" d="M45.7,68.9h-1.8v-0.6c-0.3,0.2-0.6,0.4-0.9,0.6c-0.3,0.1-0.7,0.2-1,0.2c-0.5,0-1.1-0.2-1.5-0.6
			c-0.4-0.5-0.6-1-0.5-1.6v-3.8h1.9V66c0,0.2,0,0.5,0,0.7S42,67,42,67.2c0.1,0.1,0.2,0.2,0.3,0.3c0.2,0.1,0.4,0.1,0.5,0.1
			c0.2,0,0.4,0,0.5-0.1c0.2-0.1,0.4-0.1,0.5-0.3v-4.1h1.8L45.7,68.9z"/>
		<path id="_30550009612" d="M51,67.4v-1.2c-0.3,0-0.5,0-0.8,0.1c-0.2,0-0.5,0.1-0.7,0.1s-0.3,0.1-0.4,0.3c-0.1,0.1-0.2,0.3-0.2,0.4
			s0,0.2,0,0.3c0,0.1,0.1,0.2,0.2,0.2c0.1,0.1,0.2,0.1,0.3,0.2c0.2,0,0.3,0,0.5,0s0.4,0,0.6-0.1C50.6,67.6,50.8,67.5,51,67.4z
			 M51,68.3l-0.4,0.3c-0.1,0.1-0.3,0.2-0.4,0.3c-0.2,0-0.4,0.1-0.6,0.1s-0.4,0.1-0.6,0.1c-0.5,0-1-0.2-1.4-0.5S47,67.8,47,67.3
			c0-0.4,0.1-0.7,0.3-1s0.5-0.5,0.8-0.6c0.4-0.2,0.8-0.3,1.3-0.3c0.5-0.1,1-0.1,1.6-0.1l0,0c0-0.3-0.1-0.5-0.4-0.7
			c-0.4-0.1-0.8-0.2-1.2-0.2c-0.3,0-0.7,0.1-1,0.2l-0.7,0.3h-0.1v-1.5c0.2,0,0.5-0.1,1-0.2C49,63,49.4,63,49.8,63
			c0.8-0.1,1.6,0.1,2.3,0.5c0.5,0.4,0.7,0.9,0.7,1.5v3.9H51V68.3z"/>
		<polygon id="_305500096123" points="56.4,68.9 54.5,68.9 54.5,60.9 56.4,60.9 		"/>
		<path id="_3055000961234" d="M60,68.9h-1.9v-5.8H60V68.9z M60,62.3h-2v-1.4h2V62.3z"/>
		<path id="_30550009612345" d="M65.4,68.9c-0.2,0-0.4,0.1-0.6,0.1c-0.3,0-0.5,0-0.8,0c-0.6,0-1.1-0.1-1.6-0.4
			c-0.4-0.4-0.6-0.9-0.5-1.5v-2.7h-0.8v-1.2h0.8v-1.7h1.9v1.7h1.7v1.3h-1.7V67c0,0.1,0,0.3,0.1,0.4s0.1,0.2,0.3,0.3
			c0.2,0.1,0.4,0.1,0.5,0.1s0.3,0,0.4-0.1c0.1,0,0.2-0.1,0.3-0.1h0.2L65.4,68.9z"/>
		<polygon id="_305500096123456" points="69.1,66.9 70.5,63.2 72.4,63.2 69.1,71.1 67.1,71.1 68.1,68.9 65.8,63.2 67.8,63.2 		"/>
		<path id="_3055000961234567" d="M83.2,66.5c0,0.7-0.4,1.4-1,1.8c-0.8,0.5-1.7,0.8-2.6,0.7c-0.6,0-1.1-0.1-1.7-0.2
			c-0.5-0.1-0.9-0.2-1.3-0.4v-1.8h0.2c0.4,0.3,0.9,0.6,1.4,0.8c0.5,0.2,1,0.3,1.5,0.3h0.5c0.2,0,0.3,0,0.5-0.1
			c0.1-0.1,0.3-0.1,0.4-0.2s0.2-0.3,0.2-0.4c0-0.2-0.1-0.3-0.2-0.4c-0.2-0.1-0.4-0.2-0.6-0.3L79.4,66c-0.3-0.1-0.6-0.1-0.8-0.2
			c-0.5-0.1-1-0.4-1.4-0.8c-0.3-0.4-0.4-0.9-0.4-1.3c0-0.7,0.4-1.4,1-1.8c0.7-0.5,1.6-0.7,2.5-0.7c0.5,0,1,0,1.5,0.1
			c0.4,0.1,0.9,0.2,1.3,0.4v1.8h-0.2c-0.4-0.3-0.8-0.5-1.2-0.7c-0.4-0.2-0.9-0.3-1.4-0.3c-0.2,0-0.3,0-0.5,0s-0.3,0.1-0.5,0.1
			c-0.1,0.1-0.3,0.1-0.3,0.2c-0.1,0.1-0.1,0.2-0.1,0.4s0.1,0.4,0.2,0.5c0.3,0.2,0.6,0.3,0.9,0.3l0.8,0.2c0.3,0.1,0.5,0.1,0.8,0.2
			c0.5,0.1,0.9,0.4,1.3,0.8C83.1,65.6,83.2,66,83.2,66.5L83.2,66.5z"/>
		<path id="_30550009612345678" d="M90.4,66.1c0.1,0.8-0.2,1.6-0.8,2.3c-1.4,1.1-3.3,1.1-4.7,0c-0.6-0.6-0.9-1.4-0.8-2.3
			c-0.1-0.8,0.2-1.7,0.8-2.3c1.4-1.1,3.3-1.1,4.7,0C90.1,64.4,90.4,65.2,90.4,66.1z M88.1,67.5c0.1-0.2,0.2-0.3,0.3-0.5
			c0.1-0.3,0.1-0.6,0.1-0.9s0-0.6-0.1-0.8c0-0.2-0.1-0.4-0.3-0.5c-0.1-0.1-0.2-0.2-0.4-0.3c-0.2-0.1-0.3-0.1-0.5-0.1s-0.3,0-0.5,0.1
			s-0.3,0.2-0.4,0.3c-0.1,0.2-0.2,0.4-0.3,0.5c0,0.2,0,0.5,0,0.8c0,0.3,0,0.6,0.1,0.8c0,0.2,0.1,0.4,0.3,0.6
			c0.1,0.1,0.2,0.2,0.4,0.3c0.2,0.1,0.3,0.1,0.5,0.1s0.3,0,0.5-0.1C87.9,67.7,88,67.6,88.1,67.5z"/>
		<polygon id="_305500096123456789" points="93.6,68.9 91.7,68.9 91.7,60.9 93.6,60.9 		"/>
		<path id="_30550009612345678910" d="M101.1,68.9h-1.8v-0.6c-0.3,0.2-0.6,0.4-0.9,0.6c-0.3,0.1-0.7,0.2-1,0.2
			c-0.5,0-1.1-0.2-1.5-0.6c-0.4-0.5-0.6-1-0.5-1.6v-3.8h1.9V66c0,0.2,0,0.5,0,0.7s0.1,0.3,0.1,0.5c0.1,0.1,0.2,0.2,0.3,0.3
			c0.2,0.1,0.4,0.1,0.6,0.1s0.4,0,0.5-0.1c0.2-0.1,0.4-0.1,0.6-0.3v-4.1h1.8L101.1,68.9z"/>
		<path id="_3055000961234567891011" d="M106.5,68.9c-0.2,0.1-0.4,0.1-0.6,0.1c-0.3,0-0.5,0-0.8,0c-0.6,0-1.1-0.1-1.6-0.4
			c-0.4-0.4-0.6-0.9-0.5-1.5v-2.7h-0.8v-1.2h0.8v-1.7h1.8v1.7h1.7v1.3h-1.7v2c0,0.2,0,0.4,0,0.5s0,0.3,0.1,0.4s0.1,0.2,0.3,0.3
			c0.2,0.1,0.3,0.1,0.5,0.1c0.1,0,0.3,0,0.4-0.1c0.1,0,0.2-0.1,0.3-0.1h0.2L106.5,68.9z"/>
		<path id="_305500096123456789101112" d="M109.5,68.9h-1.9v-5.8h1.9V68.9z M109.5,62.3h-2v-1.4h2V62.3z"/>
		<path id="_30550009612345678910111213" d="M117.1,66.1c0,0.8-0.3,1.6-0.8,2.3c-1.4,1.1-3.3,1.1-4.7,0c-0.6-0.6-0.9-1.4-0.8-2.3
			c0-0.8,0.3-1.6,0.8-2.2c1.4-1.1,3.3-1.1,4.7,0C116.9,64.4,117.2,65.2,117.1,66.1z M114.8,67.5c0.1-0.2,0.2-0.3,0.3-0.5
			c0.1-0.3,0.1-0.6,0.1-0.9s0-0.6-0.1-0.8c0-0.2-0.1-0.4-0.3-0.5c-0.1-0.1-0.2-0.2-0.4-0.3c-0.2-0.1-0.3-0.1-0.5-0.1s-0.3,0-0.5,0.1
			s-0.3,0.2-0.4,0.3c-0.1,0.2-0.2,0.4-0.3,0.5c-0.1,0.3-0.1,0.6-0.1,0.9s0,0.6,0.1,0.8c0,0.2,0.1,0.4,0.3,0.6
			c0.1,0.1,0.2,0.2,0.4,0.3c0.2,0.1,0.3,0.1,0.5,0.1s0.3,0,0.5-0.1C114.6,67.7,114.7,67.6,114.8,67.5z"/>
		<path id="_3055000961234567891011121314" d="M124.3,68.9h-1.9V66c0-0.2,0-0.5,0-0.7s0-0.3-0.1-0.5c-0.1-0.1-0.2-0.2-0.3-0.3
			c-0.2-0.1-0.4-0.1-0.6-0.1s-0.3,0-0.5,0.1s-0.4,0.1-0.6,0.3v4.1h-1.8v-5.8h1.8v0.6c0.3-0.2,0.6-0.4,1-0.6c0.3-0.1,0.7-0.2,1-0.2
			c0.5,0,1.1,0.2,1.5,0.5c0.4,0.4,0.6,1,0.5,1.6V68.9z"/>
		<path id="_305500096123456789101112131415" d="M136.9,65.1c0,0.7-0.2,1.3-0.5,1.9c-0.3,0.5-0.7,1-1.2,1.3
			c-0.4,0.2-0.8,0.4-1.2,0.5c-0.5,0.1-1.1,0.1-1.6,0.1h-2.7v-7.7h2.8c0.5,0,1.1,0,1.6,0.2c0.4,0.1,0.8,0.2,1.1,0.5
			c0.5,0.3,0.9,0.8,1.2,1.3C136.8,63.8,136.9,64.4,136.9,65.1L136.9,65.1z M134.9,65.1c0-0.5-0.1-0.9-0.3-1.3
			c-0.2-0.4-0.5-0.7-0.9-0.8c-0.2-0.1-0.4-0.2-0.6-0.2c-0.3,0-0.7,0-1,0h-0.5v4.8h0.5c0.3,0,0.7,0,1-0.1c0.2,0,0.4-0.1,0.6-0.2
			c0.3-0.2,0.6-0.5,0.8-0.8C134.7,66,134.9,65.6,134.9,65.1L134.9,65.1z"/>
		<path id="_30550009612345678910111213141516" d="M144,66.4h-4.2c0,0.4,0.2,0.8,0.5,1c0.4,0.3,0.9,0.4,1.4,0.4
			c0.4,0,0.8-0.1,1.1-0.2s0.6-0.3,0.9-0.4h0.2v1.5c-0.4,0.2-0.8,0.3-1.2,0.4s-0.8,0.1-1.2,0.1c-1,0.1-1.9-0.2-2.7-0.8
			c-0.6-0.6-1-1.4-0.9-2.2c0-0.8,0.3-1.7,0.9-2.3c0.7-0.6,1.5-0.9,2.4-0.8c0.8-0.1,1.5,0.2,2.1,0.7c0.5,0.6,0.8,1.3,0.7,2V66.4z
			 M142.2,65.3c0-0.3-0.1-0.6-0.3-0.9c-0.2-0.2-0.5-0.3-0.8-0.3s-0.6,0.1-0.9,0.3c-0.3,0.2-0.4,0.6-0.4,0.9H142.2z"/>
		<polygon id="_3055000961234567891011121314151617" points="147.2,68.9 145.3,68.9 145.3,60.9 147.2,60.9 		"/>
		<path id="_305500096123456789101112131415161718" d="M150.8,68.9h-1.9v-5.8h1.9V68.9z M150.8,62.3h-2v-1.4h2V62.3z"/>
		<polygon id="_30550009612345678910111213141516171819" points="158.3,63.2 156.1,68.9 154,68.9 151.8,63.2 153.7,63.2 155.1,67.1 
			156.4,63.2 		"/>
		<path id="_3055000961234567891011121314151617181920" d="M165,66.4h-4.2c0,0.4,0.2,0.8,0.5,1c0.4,0.3,0.9,0.4,1.4,0.4
			c0.4,0,0.8-0.1,1.1-0.2s0.6-0.3,0.9-0.4h0.2v1.5c-0.4,0.2-0.8,0.3-1.2,0.4s-0.8,0.1-1.2,0.1c-1,0.1-1.9-0.2-2.7-0.8
			c-0.6-0.6-1-1.4-0.9-2.2c0-0.8,0.3-1.7,0.9-2.3c0.7-0.6,1.5-0.9,2.4-0.8c0.8-0.1,1.5,0.2,2.1,0.7c0.5,0.6,0.8,1.3,0.7,2V66.4
			L165,66.4z M163.2,65.3c0-0.3-0.1-0.6-0.3-0.9c-0.2-0.2-0.5-0.3-0.9-0.3c-0.3,0-0.6,0.1-0.9,0.3c-0.3,0.2-0.4,0.6-0.4,0.9H163.2z"
			/>
		<path id="_305500096123456789101112131415161718192021" d="M170.6,64.9h-0.2l-0.4-0.1h-0.4c-0.2,0-0.5,0-0.7,0s-0.4,0.1-0.6,0.2
			v3.9h-1.9v-5.7h1.9V64c0.3-0.3,0.7-0.5,1.1-0.7c0.3-0.1,0.5-0.2,0.8-0.2h0.2h0.2L170.6,64.9z"/>
		<path id="_30550009612345678910111213141516171819202122" d="M177.3,66.4H173c0,0.4,0.2,0.8,0.5,1c0.4,0.3,0.9,0.4,1.4,0.4
			c0.4,0,0.8-0.1,1.1-0.2s0.6-0.3,0.9-0.4h0.2v1.5c-0.4,0.2-0.8,0.3-1.2,0.4s-0.8,0.1-1.2,0.1c-1,0.1-1.9-0.2-2.7-0.8
			c-0.6-0.6-1-1.4-0.9-2.2c0-0.8,0.3-1.7,0.9-2.3c0.7-0.6,1.5-0.9,2.4-0.8c0.8-0.1,1.5,0.2,2.1,0.7c0.5,0.6,0.8,1.3,0.7,2
			L177.3,66.4L177.3,66.4z M175.4,65.3c0-0.3-0.1-0.6-0.3-0.9c-0.2-0.2-0.5-0.3-0.8-0.3s-0.6,0.1-0.9,0.3c-0.3,0.2-0.4,0.6-0.4,0.9
			H175.4z"/>
		<path id="_3055000961234567891011121314151617181920212223" d="M184.2,68.9h-1.9v-0.6c-0.3,0.2-0.6,0.4-0.9,0.6
			c-0.3,0.1-0.7,0.2-1,0.2c-0.7,0-1.3-0.3-1.7-0.8c-0.4-0.6-0.7-1.4-0.6-2.2c0-0.4,0.1-0.9,0.2-1.3c0.1-0.4,0.3-0.7,0.6-1
			c0.2-0.3,0.5-0.5,0.9-0.6c0.3-0.1,0.7-0.2,1-0.2s0.6,0,0.9,0.1c0.2,0.1,0.5,0.2,0.7,0.3V61h1.9L184.2,68.9L184.2,68.9z
			 M182.4,67.3v-2.8c-0.1-0.1-0.3-0.1-0.4-0.1c-0.1,0-0.3,0-0.4,0c-0.4,0-0.8,0.1-1.1,0.5s-0.4,0.8-0.4,1.3c0,0.4,0.1,0.9,0.3,1.2
			c0.2,0.3,0.6,0.4,0.9,0.4c0.2,0,0.4,0,0.5-0.1C182,67.6,182.2,67.5,182.4,67.3L182.4,67.3z"/>
		<line id="_305500456" class="st2" x1="26.1" y1="65.8" x2="9.6" y2="65.8"/>
		<line id="_305500360" class="st2" x1="205" y1="64.7" x2="189" y2="64.7"/>
	</g>
</g>
</svg>
